<mxfile host="app.diagrams.net" modified="2021-07-28T02:29:33.109Z" agent="5.0 (Windows)" etag="LVVHsVnMRHa2BAhhRiE8" version="14.9.2" type="github">
  <diagram id="z_6VsKyhxhfVcPfuCzs1" name="Page-1">
    <mxGraphModel dx="1038" dy="541" grid="1" gridSize="10" guides="1" tooltips="1" connect="1" arrows="1" fold="1" page="1" pageScale="1" pageWidth="827" pageHeight="1169" math="0" shadow="0">
      <root>
        <mxCell id="0" />
        <mxCell id="1" parent="0" />
        <mxCell id="WIiVoESaHqNBKNa-yLAZ-1" value="&lt;h1&gt;2&lt;/h1&gt;&lt;p&gt;Nos encontramos desarrollando una pÃ¡gina web de un videojuego que debe mostrar todos los torneos que se han jugado, junto con los puntajes de los jugadores que han participado.Los jugadores pueden participar en diferentes torneos.&lt;/p&gt;" style="text;html=1;strokeColor=none;fillColor=none;spacing=5;spacingTop=-20;whiteSpace=wrap;overflow=hidden;rounded=0;" vertex="1" parent="1">
          <mxGeometry x="40" y="20" width="760" height="110" as="geometry" />
        </mxCell>
        <mxCell id="WIiVoESaHqNBKNa-yLAZ-3" value="TORNEOS" style="rounded=0;whiteSpace=wrap;html=1;" vertex="1" parent="1">
          <mxGeometry x="120" y="150" width="120" height="60" as="geometry" />
        </mxCell>
        <mxCell id="WIiVoESaHqNBKNa-yLAZ-8" style="edgeStyle=orthogonalEdgeStyle;rounded=0;orthogonalLoop=1;jettySize=auto;html=1;exitX=0.5;exitY=1;exitDx=0;exitDy=0;entryX=0.5;entryY=0;entryDx=0;entryDy=0;" edge="1" parent="1" source="WIiVoESaHqNBKNa-yLAZ-4" target="WIiVoESaHqNBKNa-yLAZ-5">
          <mxGeometry relative="1" as="geometry" />
        </mxCell>
        <mxCell id="WIiVoESaHqNBKNa-yLAZ-4" value="JUGADORES" style="rounded=0;whiteSpace=wrap;html=1;" vertex="1" parent="1">
          <mxGeometry x="420" y="150" width="120" height="60" as="geometry" />
        </mxCell>
        <mxCell id="WIiVoESaHqNBKNa-yLAZ-5" value="PUNTAJES" style="ellipse;whiteSpace=wrap;html=1;" vertex="1" parent="1">
          <mxGeometry x="420" y="290" width="120" height="30" as="geometry" />
        </mxCell>
        <mxCell id="WIiVoESaHqNBKNa-yLAZ-7" value="PARTICIPA" style="text;html=1;strokeColor=none;fillColor=none;align=center;verticalAlign=middle;whiteSpace=wrap;rounded=0;" vertex="1" parent="1">
          <mxGeometry x="310" y="160" width="40" height="20" as="geometry" />
        </mxCell>
        <mxCell id="WIiVoESaHqNBKNa-yLAZ-9" value="OBTIENE" style="text;html=1;strokeColor=none;fillColor=none;align=center;verticalAlign=middle;whiteSpace=wrap;rounded=0;" vertex="1" parent="1">
          <mxGeometry x="500" y="240" width="40" height="20" as="geometry" />
        </mxCell>
        <mxCell id="WIiVoESaHqNBKNa-yLAZ-12" value="n" style="text;html=1;strokeColor=none;fillColor=none;align=center;verticalAlign=middle;whiteSpace=wrap;rounded=0;" vertex="1" parent="1">
          <mxGeometry x="90" y="150" width="40" height="20" as="geometry" />
        </mxCell>
        <mxCell id="WIiVoESaHqNBKNa-yLAZ-13" value="n" style="text;html=1;strokeColor=none;fillColor=none;align=center;verticalAlign=middle;whiteSpace=wrap;rounded=0;" vertex="1" parent="1">
          <mxGeometry x="420" y="270" width="40" height="20" as="geometry" />
        </mxCell>
        <mxCell id="WIiVoESaHqNBKNa-yLAZ-14" value="1" style="text;html=1;strokeColor=none;fillColor=none;align=center;verticalAlign=middle;whiteSpace=wrap;rounded=0;" vertex="1" parent="1">
          <mxGeometry x="390" y="150" width="40" height="20" as="geometry" />
        </mxCell>
        <mxCell id="WIiVoESaHqNBKNa-yLAZ-15" value="" style="endArrow=classic;startArrow=classic;html=1;exitX=1;exitY=0.5;exitDx=0;exitDy=0;" edge="1" parent="1" source="WIiVoESaHqNBKNa-yLAZ-3">
          <mxGeometry width="50" height="50" relative="1" as="geometry">
            <mxPoint x="370" y="230" as="sourcePoint" />
            <mxPoint x="420" y="180" as="targetPoint" />
          </mxGeometry>
        </mxCell>
      </root>
    </mxGraphModel>
  </diagram>
</mxfile>
